Coordinates
version=1
nRows=13
nColumns=34
inDegrees=yes

Units are S.I. units (second, meters, Newtons, ...)
If the header above contains a line with 'inDegrees', this indicates whether rotational values are in degrees (yes) or radians (no).

endheader
time	pelvis_tilt	pelvis_list	pelvis_rotation	pelvis_tx	pelvis_ty	pelvis_tz	hip_flexion_r	hip_adduction_r	hip_rotation_r	knee_angle_r	ankle_angle_r	subtalar_angle_r	mtp_angle_r	hip_flexion_l	hip_adduction_l	hip_rotation_l	knee_angle_l	ankle_angle_l	subtalar_angle_l	mtp_angle_l	lumbar_extension	lumbar_bending	lumbar_rotation	arm_flex_r	arm_add_r	arm_rot_r	elbow_flex_r	pro_sup_r	arm_flex_l	arm_add_l	arm_rot_l	elbow_flex_l	pro_sup_l
      3.96666670	      2.83995838	     -2.47537618	      0.56717673	      0.09964325	      0.95033084	     -0.19778523	     21.78019563	     -3.31598342	     -1.24621806	      8.59058060	      8.46277840	     -3.00312385	      0.00000000	      5.02228568	      1.48993708	      3.48525317	     17.54169173	     12.39542206	     -7.44008402	      0.00000000	     -8.66164631	      0.14948919	     -3.08660200	     78.23247543	      6.65274371	     60.56511169	    124.03232683	    107.31898934	     81.49665645	      1.15667798	     68.98105498	    138.27334442	     93.60160453
      3.98333330	      3.10871064	     -2.67461645	      0.31274446	      0.09962073	      0.95045009	     -0.19746012	     22.56374199	     -3.17050836	     -1.90355527	      8.82319362	      8.34436892	     -3.18796172	      0.00000000	      4.78713013	      1.26708089	      3.17439708	     17.85603107	     11.96889666	     -7.18167844	      0.00000000	     -9.21489475	      0.39091138	     -3.08448456	     78.50555769	      6.62621335	     60.55879865	    124.03548285	    107.40743567	     81.53528490	      0.93031980	     68.92652699	    138.20980198	     93.71250569
      4.00000000	      3.26698745	     -2.87406536	      0.25474774	      0.09830382	      0.94877502	     -0.19609590	     23.42273583	     -3.02500847	     -2.49803007	      8.99079804	      8.42105425	     -3.36644507	      0.00000000	      4.71235374	      1.00317504	      2.96145696	     18.48180887	     12.05708603	     -6.78129784	      0.00000000	     -9.97116200	      0.57397422	     -3.13870889	     79.46930028	      6.60437272	     60.53272395	    123.71556464	    107.55241667	     82.48535532	      1.34367230	     68.48612449	    138.38302924	     93.90934594
      4.01666670	      3.56057855	     -3.17376353	      0.33302388	      0.09604201	      0.95390314	     -0.19754801	     23.92319685	     -2.90867916	     -3.14737937	      8.86634527	      8.24831331	     -3.22626920	      0.00000000	      4.28942913	      0.70303373	      3.01091454	     18.75464020	     12.57232842	     -5.39220707	      0.00000000	    -10.75377866	      1.00528332	     -3.33743410	     79.93936942	      6.30098779	     60.98187487	    123.35720231	    107.79918398	     82.76551814	      1.94394150	     68.43263192	    139.87167999	     94.35328083
      4.03333330	      3.97257397	     -3.56787890	      0.45733542	      0.09566994	      0.95149557	     -0.19689785	     24.46017218	     -2.70610684	     -3.81722192	      8.92288038	      8.49120280	     -3.06242175	      0.00000000	      3.87280227	      0.21261708	      2.55087448	     19.13016737	     14.05766562	     -3.80698632	      0.00000000	    -11.56698655	      1.60360213	     -4.01596816	     80.30596279	      6.62114661	     61.32714042	    122.85909263	    108.06807909	     83.13034039	      1.46692305	     68.29529449	    140.12136576	     94.98608456
      4.05000000	      4.23112471	     -3.95704303	      0.60953377	      0.09511612	      0.95113196	     -0.19604564	     25.05464407	     -2.50238979	     -4.38976760	      9.08414251	      8.40019000	     -3.35445360	      0.00000000	      3.67571573	     -0.25079953	      2.40680018	     19.53739168	     14.38461373	     -2.96207732	      0.00000000	    -12.08475074	      2.09380665	     -4.45954453	     80.55189800	      6.59104724	     61.38465869	    122.38251778	    108.17300774	     83.51959838	      1.27729353	     67.84106462	    140.02024367	     95.28246284
      4.06666670	      4.63915220	     -4.21443809	      0.52943368	      0.09089116	      0.95482697	     -0.19639966	     25.80917802	     -2.28592619	     -4.59096162	      9.18507784	      8.32773061	     -2.91427158	      0.00000000	      3.09697410	     -0.47944363	      2.14850017	     19.51931145	     16.11948779	     -2.52555318	      0.00000000	    -12.35871325	      2.31169644	     -4.41014119	     80.33164909	      6.45411598	     61.58758329	    122.38700564	    108.21571046	     83.24639461	      0.56124160	     68.17242541	    138.90156927	     95.43481769
      4.08333330	      4.96778489	     -4.38186222	      0.56362637	      0.09163337	      0.95328913	     -0.19507510	     26.63166867	     -2.20651097	     -4.94687445	      9.49819989	      7.91469285	     -2.89699494	      0.00000000	      2.93678655	     -0.73191469	      2.21388849	     19.51071843	     16.27534022	     -2.31974961	      0.00000000	    -12.89739914	      2.43948243	     -4.35534584	     80.20267317	      6.37889339	     61.69164177	    122.34947749	    108.22612426	     83.31525995	      0.70381197	     68.23591965	    139.00437232	     95.46801221
      4.10000000	      5.53173937	     -4.67855015	      0.63621241	      0.08947170	      0.95326639	     -0.19618604	     27.09927228	     -2.15436084	     -5.99524142	      9.70747376	      7.43027606	     -2.68625771	      0.00000000	      2.61991333	     -1.20017866	      1.56489900	     19.88673052	     17.88006591	     -0.52614119	      0.00000000	    -13.43030208	      2.72607863	     -3.55569429	     80.31486050	      5.70882268	     61.71395551	    122.63809071	    108.23543509	     83.52537433	      0.46374489	     69.28094630	    138.14707355	     95.72009629
      4.11666670	      5.98644584	     -4.74042597	      0.42679564	      0.08934411	      0.95473169	     -0.19504141	     27.42452202	     -2.16120388	     -6.78782585	      9.82885023	      6.81309942	     -2.82561332	      0.00000000	      2.44411630	     -1.34749291	      1.10835311	     20.20868772	     17.02065897	     -0.35799507	      0.00000000	    -13.72665121	      2.69081839	     -3.19137064	     79.95940640	      5.32545390	     61.75236586	    122.74283175	    108.21852559	     83.02207563	     -0.56606118	     69.71852953	    137.34581064	     95.74735133
      4.13333330	      6.29284940	     -4.76394083	      0.50759376	      0.08878333	      0.95895682	     -0.19446560	     27.59119385	     -2.23423819	     -7.25202793	      9.47208852	      6.47107106	     -2.55969169	      0.00000000	      2.44835023	     -1.56742430	      0.86603471	     20.53734301	     16.60845412	     -0.41865582	      0.00000000	    -14.01398685	      2.51609713	     -2.91839397	     79.21353142	      4.81879569	     61.97221573	    122.94843324	    108.11315991	     82.43536260	     -0.93305395	     71.34674768	    135.86019214	     95.73603947
      4.15000000	      6.43096919	     -4.84176118	      0.62242384	      0.08806449	      0.95451952	     -0.19418488	     28.25890658	     -2.21980152	     -7.41699653	      9.19262600	      6.46199132	     -2.25938233	      0.00000000	      2.29773199	     -1.74842398	      0.56062734	     20.88827506	     17.62040428	     -0.76822862	      0.00000000	    -14.23536246	      2.58625615	     -2.93992062	     79.66550211	      4.70532648	     61.79902671	    123.07331875	    108.05236248	     82.58077586	     -1.13530820	     71.51121940	    135.25805843	     95.69880403
      4.16666670	      6.82786879	     -4.99296210	      0.87501195	      0.08743480	      0.95435428	     -0.19506797	     28.45541345	     -2.21244374	     -8.18902400	      8.71839637	      6.73874607	     -0.58055504	      0.00000000	      1.67851867	     -1.91642670	      0.34715502	     20.97501424	     19.75038029	      0.21247341	      0.00000000	    -14.69386180	      2.65024387	     -3.09476695	     79.87924781	      4.12738048	     61.37144541	    123.08644091	    107.58922450	     83.17195195	     -0.79618058	     72.19677460	    133.55082526	     95.37046215
